<svg width="26" height="26" viewBox="0 0 26 26" fill="none" xmlns="http://www.w3.org/2000/svg">
<g clip-path="url(#clip0_5_15)">
<path d="M26 13.0796C26 5.85488 20.1793 -0.00161743 13 -0.00161743C5.81751 7.56851e-06 -0.00323486 5.85488 -0.00323486 13.0813C-0.00323486 19.6089 4.75152 25.0201 10.9655 26.0016V16.861H7.66676V13.0813H10.9688V10.1969C10.9688 6.91926 12.9106 5.10901 15.8795 5.10901C17.303 5.10901 18.7899 5.36413 18.7899 5.36413V8.58163H17.1503C15.5366 8.58163 15.0329 9.59076 15.0329 10.6259V13.0796H18.6371L18.0619 16.8594H15.0313V26C21.2453 25.0185 26 19.6073 26 13.0796Z" fill="#4F4F4F"/>
</g>
<defs>
<clipPath id="clip0_5_15">
<rect width="26" height="26" fill="white"/>
</clipPath>
</defs>
</svg>
